<svg xmlns="http://www.w3.org/2000/svg" xmlns:xlink="http://www.w3.org/1999/xlink" viewBox="0 0 1920 588" width="1920" height="588" preserveAspectRatio="xMidYMid meet" style="width: 100%; height: 100%; transform: translate3d(0px, 0px, 0px); content-visibility: visible;"><defs><clipPath id="__lottie_element_31"><rect width="1920" height="588" x="0" y="0"></rect></clipPath></defs><g clip-path="url(#__lottie_element_31)"><g transform="matrix(5.269999980926514,0,0,5.269999980926514,41.75,46.30999755859375)" opacity="1" style="display: block;"><g opacity="1" transform="matrix(1,0,0,1,135.12899780273438,49.91600036621094)"><path fill="rgb(25,6,4)" fill-opacity="1" d=" M9.517999649047852,18.3799991607666 C8.598999977111816,19.131999969482422 7.482999801635742,19.694000244140625 6.168000221252441,20.06999969482422 C4.853000164031982,20.445999145507812 3.4639999866485596,20.632999420166016 2.003999948501587,20.632999420166016 C-1.6699999570846558,20.632999420166016 -4.508999824523926,19.67300033569336 -6.513000011444092,17.753000259399414 C-8.517000198364258,15.833000183105469 -9.517999649047852,13.03600025177002 -9.517999649047852,9.36299991607666 C-9.517999649047852,9.36299991607666 -9.517999649047852,-20.632999420166016 -9.517999649047852,-20.632999420166016 C-9.517999649047852,-20.632999420166016 -1.690999984741211,-20.632999420166016 -1.690999984741211,-20.632999420166016 C-1.690999984741211,-20.632999420166016 -1.690999984741211,-12.993000030517578 -1.690999984741211,-12.993000030517578 C-1.690999984741211,-12.993000030517578 7.263999938964844,-12.993000030517578 7.263999938964844,-12.993000030517578 C7.263999938964844,-12.993000030517578 7.263999938964844,-6.73199987411499 7.263999938964844,-6.73199987411499 C7.263999938964844,-6.73199987411499 -1.690999984741211,-6.73199987411499 -1.690999984741211,-6.73199987411499 C-1.690999984741211,-6.73199987411499 -1.690999984741211,9.173999786376953 -1.690999984741211,9.173999786376953 C-1.690999984741211,10.802000045776367 -1.284000039100647,12.045000076293945 -0.4699999988079071,12.899999618530273 C0.3440000116825104,13.755999565124512 1.4809999465942383,14.184000015258789 2.943000078201294,14.184000015258789 C4.697000026702881,14.184000015258789 6.1570000648498535,13.72599983215332 7.326000213623047,12.807000160217285 C7.326000213623047,12.807000160217285 9.517999649047852,18.3799991607666 9.517999649047852,18.3799991607666z"></path></g><g opacity="1" transform="matrix(1,0,0,1,160.77099609375,53.20399856567383)"><path fill="rgb(25,6,4)" fill-opacity="1" d=" M9.675000190734863,-16.908000946044922 C9.675000190734863,-16.908000946044922 9.675000190734863,-9.456000328063965 9.675000190734863,-9.456000328063965 C9.006999969482422,-9.581999778747559 8.401000022888184,-9.642999649047852 7.859000205993652,-9.642999649047852 C4.810999870300293,-9.642999649047852 2.431999921798706,-8.755999565124512 0.7210000157356262,-6.98199987411499 C-0.9919999837875366,-5.206999778747559 -1.847000002861023,-2.6500000953674316 -1.847000002861023,0.6890000104904175 C-1.847000002861023,0.6890000104904175 -1.847000002861023,16.908000946044922 -1.847000002861023,16.908000946044922 C-1.847000002861023,16.908000946044922 -9.675000190734863,16.908000946044922 -9.675000190734863,16.908000946044922 C-9.675000190734863,16.908000946044922 -9.675000190734863,-16.5310001373291 -9.675000190734863,-16.5310001373291 C-9.675000190734863,-16.5310001373291 -2.2230000495910645,-16.5310001373291 -2.2230000495910645,-16.5310001373291 C-2.2230000495910645,-16.5310001373291 -2.2230000495910645,-11.647000312805176 -2.2230000495910645,-11.647000312805176 C0.03200000151991844,-15.154000282287598 3.997999906539917,-16.908000946044922 9.675000190734863,-16.908000946044922z"></path></g><g opacity="1" transform="matrix(1,0,0,1,189.85899353027344,53.42300033569336)"><path fill="rgb(25,6,4)" fill-opacity="1" d=" M17.722000122070312,-16.750999450683594 C17.722000122070312,-16.750999450683594 17.722000122070312,16.687999725341797 17.722000122070312,16.687999725341797 C17.722000122070312,16.687999725341797 10.270000457763672,16.687999725341797 10.270000457763672,16.687999725341797 C10.270000457763672,16.687999725341797 10.270000457763672,12.366999626159668 10.270000457763672,12.366999626159668 C8.975000381469727,13.954999923706055 7.377999782562256,15.144000053405762 5.479000091552734,15.937000274658203 C3.5789999961853027,16.729000091552734 1.4809999465942383,17.12700080871582 -0.8149999976158142,17.12700080871582 C-4.070000171661377,17.12700080871582 -6.982999801635742,16.417999267578125 -9.550000190734863,14.998000144958496 C-12.116999626159668,13.579000473022461 -14.121000289916992,11.574999809265137 -15.562000274658203,8.986000061035156 C-17.00200080871582,6.3979997634887695 -17.722000122070312,3.3919999599456787 -17.722000122070312,-0.03099999949336052 C-17.722000122070312,-3.4539999961853027 -17.00200080871582,-6.449999809265137 -15.562000274658203,-9.017000198364258 C-14.121000289916992,-11.585000038146973 -12.116999626159668,-13.57800006866455 -9.550000190734863,-14.998000144958496 C-6.982999801635742,-16.416000366210938 -4.070000171661377,-17.12700080871582 -0.8149999976158142,-17.12700080871582 C1.3559999465942383,-17.12700080871582 3.3499999046325684,-16.750999450683594 5.165999889373779,-16 C6.98199987411499,-15.248000144958496 8.557000160217285,-14.140999794006348 9.894000053405762,-12.680000305175781 C9.894000053405762,-12.680000305175781 9.894000053405762,-16.750999450683594 9.894000053405762,-16.750999450683594 C9.894000053405762,-16.750999450683594 17.722000122070312,-16.750999450683594 17.722000122070312,-16.750999450683594z M7.201000213623047,7.546000003814697 C9.079999923706055,5.625999927520752 10.019000053405762,3.0999999046325684 10.019000053405762,-0.03099999949336052 C10.019000053405762,-3.1619999408721924 9.079999923706055,-5.686999797821045 7.201000213623047,-7.607999801635742 C5.322000026702881,-9.527999877929688 2.943000078201294,-10.48900032043457 0.06199999898672104,-10.48900032043457 C-2.818000078201294,-10.48900032043457 -5.188000202178955,-9.527999877929688 -7.045000076293945,-7.607999801635742 C-8.902999877929688,-5.686999797821045 -9.831999778747559,-3.1619999408721924 -9.831999778747559,-0.03099999949336052 C-9.831999778747559,3.0999999046325684 -8.902999877929688,5.625999927520752 -7.045000076293945,7.546000003814697 C-5.188000202178955,9.465999603271484 -2.818000078201294,10.425999641418457 0.06199999898672104,10.425999641418457 C2.943000078201294,10.425999641418457 5.322000026702881,9.465999603271484 7.201000213623047,7.546000003814697z"></path></g><g opacity="1" transform="matrix(1,0,0,1,232.0959930419922,47.0989990234375)"><path fill="rgb(25,6,4)" fill-opacity="1" d=" M17.753000259399414,-23.451000213623047 C17.753000259399414,-23.451000213623047 17.753000259399414,23.01300048828125 17.753000259399414,23.01300048828125 C17.753000259399414,23.01300048828125 10.23900032043457,23.01300048828125 10.23900032043457,23.01300048828125 C10.23900032043457,23.01300048828125 10.23900032043457,18.691999435424805 10.23900032043457,18.691999435424805 C8.942999839782715,20.27899932861328 7.3470001220703125,21.4689998626709 5.447999954223633,22.26099967956543 C3.546999931335449,23.054000854492188 1.4490000009536743,23.451000213623047 -0.8460000157356262,23.451000213623047 C-4.060999870300293,23.451000213623047 -6.951000213623047,22.742000579833984 -9.519000053405762,21.32200050354004 C-12.086000442504883,19.902999877929688 -14.10099983215332,17.888999938964844 -15.560999870300293,15.279000282287598 C-17.023000717163086,12.670999526977539 -17.753999710083008,9.675000190734863 -17.753999710083008,6.293000221252441 C-17.753999710083008,2.9119999408721924 -17.023000717163086,-0.0729999989271164 -15.560999870300293,-2.6619999408721924 C-14.10099983215332,-5.25 -12.086000442504883,-7.252999782562256 -9.519000053405762,-8.67300033569336 C-6.951000213623047,-10.092000007629395 -4.060999870300293,-10.802000045776367 -0.8460000157356262,-10.802000045776367 C1.3669999837875366,-10.802000045776367 3.3910000324249268,-10.425999641418457 5.229000091552734,-9.675000190734863 C7.065000057220459,-8.923999786376953 8.630000114440918,-7.796999931335449 9.925000190734863,-6.293000221252441 C9.925000190734863,-6.293000221252441 9.925000190734863,-23.451000213623047 9.925000190734863,-23.451000213623047 C9.925000190734863,-23.451000213623047 17.753000259399414,-23.451000213623047 17.753000259399414,-23.451000213623047z M5.165999889373779,15.467000007629395 C6.669000148773193,14.612000465393066 7.859000205993652,13.390999794006348 8.734999656677246,11.803999900817871 C9.612000465393066,10.218000411987305 10.050000190734863,8.380999565124512 10.050000190734863,6.293000221252441 C10.050000190734863,4.205999851226807 9.612000465393066,2.369999885559082 8.734999656677246,0.7829999923706055 C7.859000205993652,-0.8040000200271606 6.669000148773193,-2.0239999294281006 5.165999889373779,-2.88100004196167 C3.6630001068115234,-3.7360000610351562 1.972000002861023,-4.164000034332275 0.09300000220537186,-4.164000034332275 C-1.784999966621399,-4.164000034332275 -3.4760000705718994,-3.7360000610351562 -4.978000164031982,-2.88100004196167 C-6.480999946594238,-2.0239999294281006 -7.671000003814697,-0.8040000200271606 -8.54800033569336,0.7829999923706055 C-9.423999786376953,2.369999885559082 -9.86299991607666,4.205999851226807 -9.86299991607666,6.293000221252441 C-9.86299991607666,8.380999565124512 -9.423999786376953,10.218000411987305 -8.54800033569336,11.803999900817871 C-7.671000003814697,13.390999794006348 -6.480999946594238,14.612000465393066 -4.978000164031982,15.467000007629395 C-3.4760000705718994,16.322999954223633 -1.784999966621399,16.750999450683594 0.09300000220537186,16.750999450683594 C1.972000002861023,16.750999450683594 3.6630001068115234,16.322999954223633 5.165999889373779,15.467000007629395z"></path></g><g opacity="1" transform="matrix(1,0,0,1,262.05999755859375,45.939998626708984)"><path fill="rgb(25,6,4)" fill-opacity="1" d=" M-3.569000005722046,-16.124000549316406 C-4.53000020980835,-17.020999908447266 -5.008999824523926,-18.138999938964844 -5.008999824523926,-19.475000381469727 C-5.008999824523926,-20.81100082397461 -4.53000020980835,-21.92799949645996 -3.569000005722046,-22.826000213623047 C-2.6089999675750732,-23.722999572753906 -1.4190000295639038,-24.172000885009766 0,-24.172000885009766 C1.4199999570846558,-24.172000885009766 2.6089999675750732,-23.743000030517578 3.569000005722046,-22.886999130249023 C4.53000020980835,-22.0310001373291 5.010000228881836,-20.95599937438965 5.010000228881836,-19.663000106811523 C5.010000228881836,-18.28499984741211 4.539999961853027,-17.12700080871582 3.6010000705718994,-16.187999725341797 C2.6619999408721924,-15.24899959564209 1.4609999656677246,-14.779000282287598 0,-14.779000282287598 C-1.4190000295639038,-14.779000282287598 -2.6089999675750732,-15.22599983215332 -3.569000005722046,-16.124000549316406z M-3.944999933242798,-9.267999649047852 C-3.944999933242798,-9.267999649047852 3.882999897003174,-9.267999649047852 3.882999897003174,-9.267999649047852 C3.882999897003174,-9.267999649047852 3.882999897003174,24.172000885009766 3.882999897003174,24.172000885009766 C3.882999897003174,24.172000885009766 -3.944999933242798,24.172000885009766 -3.944999933242798,24.172000885009766 C-3.944999933242798,24.172000885009766 -3.944999933242798,-9.267999649047852 -3.944999933242798,-9.267999649047852z"></path></g><g opacity="1" transform="matrix(1,0,0,1,290.4280090332031,53.42300033569336)"><path fill="rgb(25,6,4)" fill-opacity="1" d=" M17.722000122070312,-16.750999450683594 C17.722000122070312,-16.750999450683594 17.722000122070312,16.687999725341797 17.722000122070312,16.687999725341797 C17.722000122070312,16.687999725341797 10.270000457763672,16.687999725341797 10.270000457763672,16.687999725341797 C10.270000457763672,16.687999725341797 10.270000457763672,12.366999626159668 10.270000457763672,12.366999626159668 C8.975000381469727,13.954999923706055 7.377999782562256,15.144000053405762 5.479000091552734,15.937000274658203 C3.5789999961853027,16.729000091552734 1.4809999465942383,17.12700080871582 -0.8149999976158142,17.12700080871582 C-4.070000171661377,17.12700080871582 -6.98199987411499,16.417999267578125 -9.550000190734863,14.998000144958496 C-12.116999626159668,13.579000473022461 -14.121000289916992,11.574999809265137 -15.562000274658203,8.986000061035156 C-17.000999450683594,6.3979997634887695 -17.722000122070312,3.3919999599456787 -17.722000122070312,-0.03099999949336052 C-17.722000122070312,-3.4539999961853027 -17.000999450683594,-6.449999809265137 -15.562000274658203,-9.017000198364258 C-14.121000289916992,-11.585000038146973 -12.116999626159668,-13.57800006866455 -9.550000190734863,-14.998000144958496 C-6.98199987411499,-16.416000366210938 -4.070000171661377,-17.12700080871582 -0.8149999976158142,-17.12700080871582 C1.3559999465942383,-17.12700080871582 3.3499999046325684,-16.750999450683594 5.165999889373779,-16 C6.98199987411499,-15.248000144958496 8.557000160217285,-14.140999794006348 9.894000053405762,-12.680000305175781 C9.894000053405762,-12.680000305175781 9.894000053405762,-16.750999450683594 9.894000053405762,-16.750999450683594 C9.894000053405762,-16.750999450683594 17.722000122070312,-16.750999450683594 17.722000122070312,-16.750999450683594z M7.201000213623047,7.546000003814697 C9.079999923706055,5.625999927520752 10.019000053405762,3.0999999046325684 10.019000053405762,-0.03099999949336052 C10.019000053405762,-3.1619999408721924 9.079999923706055,-5.686999797821045 7.201000213623047,-7.607999801635742 C5.322000026702881,-9.527999877929688 2.943000078201294,-10.48900032043457 0.06199999898672104,-10.48900032043457 C-2.818000078201294,-10.48900032043457 -5.186999797821045,-9.527999877929688 -7.045000076293945,-7.607999801635742 C-8.902999877929688,-5.686999797821045 -9.831999778747559,-3.1619999408721924 -9.831999778747559,-0.03099999949336052 C-9.831999778747559,3.0999999046325684 -8.902999877929688,5.625999927520752 -7.045000076293945,7.546000003814697 C-5.186999797821045,9.465999603271484 -2.818000078201294,10.425999641418457 0.06199999898672104,10.425999641418457 C2.943000078201294,10.425999641418457 5.322000026702881,9.465999603271484 7.201000213623047,7.546000003814697z"></path></g><g opacity="1" transform="matrix(1,0,0,1,332.885009765625,53.20399856567383)"><path fill="rgb(25,6,4)" fill-opacity="1" d=" M12.64900016784668,-13.213000297546387 C15.194999694824219,-10.74899959564209 16.469999313354492,-7.0970001220703125 16.469999313354492,-2.255000114440918 C16.469999313354492,-2.255000114440918 16.469999313354492,16.908000946044922 16.469999313354492,16.908000946044922 C16.469999313354492,16.908000946044922 8.642000198364258,16.908000946044922 8.642000198364258,16.908000946044922 C8.642000198364258,16.908000946044922 8.642000198364258,-1.2519999742507935 8.642000198364258,-1.2519999742507935 C8.642000198364258,-4.173999786376953 7.953000068664551,-6.375999927520752 6.576000213623047,-7.859000205993652 C5.197000026702881,-9.34000015258789 3.234999895095825,-10.081999778747559 0.6890000104904175,-10.081999778747559 C-2.191999912261963,-10.081999778747559 -4.4679999351501465,-9.21500015258789 -6.13700008392334,-7.482999801635742 C-7.807000160217285,-5.75 -8.640999794006348,-3.25600004196167 -8.640999794006348,0 C-8.640999794006348,0 -8.640999794006348,16.908000946044922 -8.640999794006348,16.908000946044922 C-8.640999794006348,16.908000946044922 -16.4689998626709,16.908000946044922 -16.4689998626709,16.908000946044922 C-16.4689998626709,16.908000946044922 -16.4689998626709,-16.531999588012695 -16.4689998626709,-16.531999588012695 C-16.4689998626709,-16.531999588012695 -9.017999649047852,-16.531999588012695 -9.017999649047852,-16.531999588012695 C-9.017999649047852,-16.531999588012695 -9.017999649047852,-12.211000442504883 -9.017999649047852,-12.211000442504883 C-7.723999977111816,-13.755000114440918 -6.0960001945495605,-14.925000190734863 -4.132999897003174,-15.718000411987305 C-2.1710000038146973,-16.51099967956543 0.04100000113248825,-16.908000946044922 2.505000114440918,-16.908000946044922 C6.7210001945495605,-16.908000946044922 10.102999687194824,-15.675999641418457 12.64900016784668,-13.213000297546387z"></path></g></g><g transform="matrix(-0.4107963442802429,0.0017352219438180327,-0.0017352219438180327,-0.4107963442802429,287.5,291)" opacity="1" style="display: block;"><g opacity="1" transform="matrix(0.9988200068473816,0.00005229809175943956,-0.000052363018767209724,1.000059962272644,0,0)"><path fill="rgb(193,19,12)" fill-opacity="1" d=" M-146.08299255371094,-518.0479736328125 C-146.08299255371094,-518.0479736328125 -266.4490051269531,-504.83599853515625 -266.4490051269531,-504.83599853515625 C-266.4490051269531,-504.83599853515625 -83.76699829101562,-284.8179931640625 -83.76699829101562,-284.8179931640625 C-83.76699829101562,-284.8179931640625 44.994998931884766,-285.95001220703125 44.994998931884766,-285.95001220703125 C44.994998931884766,-285.95001220703125 -146.08299255371094,-518.0479736328125 -146.08299255371094,-518.0479736328125z"></path></g><g opacity="1" transform="matrix(0.9992799758911133,0.00005232217881712131,-0.000052348357712617144,0.999779999256134,0.1420000046491623,0.19300000369548798)"><path fill="rgb(255,103,89)" fill-opacity="1" d=" M-105.45899963378906,-594.3920288085938 C-105.45899963378906,-594.3920288085938 -233.95700073242188,-591.4879760742188 -233.95700073242188,-591.4879760742188 C-233.95700073242188,-591.4879760742188 -264.1340026855469,-507.0039978027344 -264.1340026855469,-507.0039978027344 C-264.1340026855469,-507.0039978027344 -144.26300048828125,-521.27099609375 -144.26300048828125,-521.27099609375 C-144.26300048828125,-521.27099609375 -105.45899963378906,-594.3920288085938 -105.45899963378906,-594.3920288085938z"></path></g><g opacity="1" transform="matrix(1,0,0,1,0,0)"><path fill="rgb(164,0,21)" fill-opacity="1" d=" M-104.75,-595.75 C-104.75,-595.75 -233.5,-594.5 -233.5,-594.5 C-233.5,-594.5 -49,-369.75 -49,-369.75 C-49,-369.75 79.25,-369.75 79.25,-369.75 C79.25,-369.75 -104.75,-595.75 -104.75,-595.75z"></path></g><g opacity="1" transform="matrix(1,0,0,1,0,0)"><path fill="rgb(247,51,56)" fill-opacity="1" d=" M-48.75,-369.75 C-48.75,-369.75 -86,-284.25 -86,-284.25 C-86,-284.25 46.25,-284.25 46.25,-284.25 C46.25,-284.25 79.75,-369.5 79.75,-369.5 C79.75,-369.5 -48.75,-369.75 -48.75,-369.75z"></path></g><g opacity="1" transform="matrix(1,0,0,1,0.19099999964237213,0.1589999943971634)"><path fill="rgb(199,6,34)" fill-opacity="1" d=" M-233.5,-594.5 C-233.5,-594.5 -269.5,-504.5 -269.5,-504.5 C-269.5,-504.5 -86,-283 -86,-283 C-86,-283 -49.25,-369.5 -49.25,-369.5 C-49.25,-369.5 -233.5,-594.5 -233.5,-594.5z"></path></g></g><g transform="matrix(-0.29170387983322144,-0.28924989700317383,0.28924989700317383,-0.29170387983322144,287.5,291)" opacity="1" style="display: block;"><g opacity="1" transform="matrix(0.9988200068473816,0.00005229809175943956,-0.000052363018767209724,1.000059962272644,0,0)"><path fill="rgb(193,19,12)" fill-opacity="1" d=" M-146.08299255371094,-518.0479736328125 C-146.08299255371094,-518.0479736328125 -266.4490051269531,-504.83599853515625 -266.4490051269531,-504.83599853515625 C-266.4490051269531,-504.83599853515625 -83.76699829101562,-284.8179931640625 -83.76699829101562,-284.8179931640625 C-83.76699829101562,-284.8179931640625 44.994998931884766,-285.95001220703125 44.994998931884766,-285.95001220703125 C44.994998931884766,-285.95001220703125 -146.08299255371094,-518.0479736328125 -146.08299255371094,-518.0479736328125z"></path></g><g opacity="1" transform="matrix(0.9992799758911133,0.00005232217881712131,-0.000052348357712617144,0.999779999256134,0.1420000046491623,0.19300000369548798)"><path fill="rgb(210,30,23)" fill-opacity="1" d=" M-105.45899963378906,-594.3920288085938 C-105.45899963378906,-594.3920288085938 -233.95700073242188,-591.4879760742188 -233.95700073242188,-591.4879760742188 C-233.95700073242188,-591.4879760742188 -264.1340026855469,-507.0039978027344 -264.1340026855469,-507.0039978027344 C-264.1340026855469,-507.0039978027344 -144.26300048828125,-521.27099609375 -144.26300048828125,-521.27099609375 C-144.26300048828125,-521.27099609375 -105.45899963378906,-594.3920288085938 -105.45899963378906,-594.3920288085938z"></path></g><g opacity="1" transform="matrix(1,0,0,1,0,0)"><path fill="rgb(168,0,22)" fill-opacity="1" d=" M-104.75,-595.75 C-104.75,-595.75 -233.5,-594.5 -233.5,-594.5 C-233.5,-594.5 -49,-369.75 -49,-369.75 C-49,-369.75 79.25,-369.75 79.25,-369.75 C79.25,-369.75 -104.75,-595.75 -104.75,-595.75z"></path></g><g opacity="1" transform="matrix(1,0,0,1,0,0)"><path fill="rgb(253,70,67)" fill-opacity="1" d=" M-48.75,-369.75 C-48.75,-369.75 -86,-284.25 -86,-284.25 C-86,-284.25 46.25,-284.25 46.25,-284.25 C46.25,-284.25 79.75,-369.5 79.75,-369.5 C79.75,-369.5 -48.75,-369.75 -48.75,-369.75z"></path></g><g opacity="1" transform="matrix(1,0,0,1,0.19099999964237213,0.1589999943971634)"><path fill="rgb(170,2,22)" fill-opacity="1" d=" M-233.5,-594.5 C-233.5,-594.5 -269.5,-504.5 -269.5,-504.5 C-269.5,-504.5 -86,-283 -86,-283 C-86,-283 -49.25,-369.5 -49.25,-369.5 C-49.25,-369.5 -233.5,-594.5 -233.5,-594.5z"></path></g></g><g transform="matrix(-0.0017352219438180327,-0.4107963442802429,0.4107963442802429,-0.0017352219438180327,287.5,291)" opacity="1" style="display: block;"><g opacity="1" transform="matrix(0.9988200068473816,0.00005229809175943956,-0.000052363018767209724,1.000059962272644,0,0)"><path fill="rgb(193,19,12)" fill-opacity="1" d=" M-146.08299255371094,-518.0479736328125 C-146.08299255371094,-518.0479736328125 -266.4490051269531,-504.83599853515625 -266.4490051269531,-504.83599853515625 C-266.4490051269531,-504.83599853515625 -83.76699829101562,-284.8179931640625 -83.76699829101562,-284.8179931640625 C-83.76699829101562,-284.8179931640625 44.994998931884766,-285.95001220703125 44.994998931884766,-285.95001220703125 C44.994998931884766,-285.95001220703125 -146.08299255371094,-518.0479736328125 -146.08299255371094,-518.0479736328125z"></path></g><g opacity="1" transform="matrix(0.9992799758911133,0.00005232217881712131,-0.000052348357712617144,0.999779999256134,0.1420000046491623,0.19300000369548798)"><path fill="rgb(163,0,21)" fill-opacity="1" d=" M-105.45899963378906,-594.3920288085938 C-105.45899963378906,-594.3920288085938 -233.95700073242188,-591.4879760742188 -233.95700073242188,-591.4879760742188 C-233.95700073242188,-591.4879760742188 -264.1340026855469,-507.0039978027344 -264.1340026855469,-507.0039978027344 C-264.1340026855469,-507.0039978027344 -144.26300048828125,-521.27099609375 -144.26300048828125,-521.27099609375 C-144.26300048828125,-521.27099609375 -105.45899963378906,-594.3920288085938 -105.45899963378906,-594.3920288085938z"></path></g><g opacity="1" transform="matrix(1,0,0,1,0,0)"><path fill="rgb(227,22,44)" fill-opacity="1" d=" M-104.75,-595.75 C-104.75,-595.75 -233.5,-594.5 -233.5,-594.5 C-233.5,-594.5 -49,-369.75 -49,-369.75 C-49,-369.75 79.25,-369.75 79.25,-369.75 C79.25,-369.75 -104.75,-595.75 -104.75,-595.75z"></path></g><g opacity="1" transform="matrix(1,0,0,1,0,0)"><path fill="rgb(254,71,68)" fill-opacity="1" d=" M-48.75,-369.75 C-48.75,-369.75 -86,-284.25 -86,-284.25 C-86,-284.25 46.25,-284.25 46.25,-284.25 C46.25,-284.25 79.75,-369.5 79.75,-369.5 C79.75,-369.5 -48.75,-369.75 -48.75,-369.75z"></path></g><g opacity="1" transform="matrix(1,0,0,1,0.19099999964237213,0.1589999943971634)"><path fill="rgb(165,0,18)" fill-opacity="1" d=" M-233.5,-594.5 C-233.5,-594.5 -269.5,-504.5 -269.5,-504.5 C-269.5,-504.5 -86,-283 -86,-283 C-86,-283 -49.25,-369.5 -49.25,-369.5 C-49.25,-369.5 -233.5,-594.5 -233.5,-594.5z"></path></g></g><g transform="matrix(0.28924989700317383,-0.29170387983322144,0.29170387983322144,0.28924989700317383,287.5,291)" opacity="1" style="display: block;"><g opacity="1" transform="matrix(0.9988200068473816,0.00005229809175943956,-0.000052363018767209724,1.000059962272644,0,0)"><path fill="rgb(193,19,12)" fill-opacity="1" d=" M-146.08299255371094,-518.0479736328125 C-146.08299255371094,-518.0479736328125 -266.4490051269531,-504.83599853515625 -266.4490051269531,-504.83599853515625 C-266.4490051269531,-504.83599853515625 -83.76699829101562,-284.8179931640625 -83.76699829101562,-284.8179931640625 C-83.76699829101562,-284.8179931640625 44.994998931884766,-285.95001220703125 44.994998931884766,-285.95001220703125 C44.994998931884766,-285.95001220703125 -146.08299255371094,-518.0479736328125 -146.08299255371094,-518.0479736328125z"></path></g><g opacity="1" transform="matrix(0.9992799758911133,0.00005232217881712131,-0.000052348357712617144,0.999779999256134,0.1420000046491623,0.19300000369548798)"><path fill="rgb(163,0,21)" fill-opacity="1" d=" M-105.45899963378906,-594.3920288085938 C-105.45899963378906,-594.3920288085938 -233.95700073242188,-591.4879760742188 -233.95700073242188,-591.4879760742188 C-233.95700073242188,-591.4879760742188 -264.1340026855469,-507.0039978027344 -264.1340026855469,-507.0039978027344 C-264.1340026855469,-507.0039978027344 -144.26300048828125,-521.27099609375 -144.26300048828125,-521.27099609375 C-144.26300048828125,-521.27099609375 -105.45899963378906,-594.3920288085938 -105.45899963378906,-594.3920288085938z"></path></g><g opacity="1" transform="matrix(1,0,0,1,-0.9480000138282776,-1.3830000162124634)"><path fill="rgb(249,86,78)" fill-opacity="1" d=" M-104.75,-595.75 C-104.75,-595.75 -233.5,-594.5 -233.5,-594.5 C-233.5,-594.5 -49,-369.75 -49,-369.75 C-49,-369.75 79.25,-369.75 79.25,-369.75 C79.25,-369.75 -104.75,-595.75 -104.75,-595.75z"></path></g><g opacity="1" transform="matrix(1,0,0,1,0,0)"><path fill="rgb(236,26,47)" fill-opacity="1" d=" M-48.75,-369.75 C-48.75,-369.75 -86,-284.25 -86,-284.25 C-86,-284.25 46.25,-284.25 46.25,-284.25 C46.25,-284.25 79.75,-369.5 79.75,-369.5 C79.75,-369.5 -48.75,-369.75 -48.75,-369.75z"></path></g><g opacity="1" transform="matrix(1,0,0,1,0.19099999964237213,0.1589999943971634)"><path fill="rgb(168,0,20)" fill-opacity="1" d=" M-233.5,-594.5 C-233.5,-594.5 -269.5,-504.5 -269.5,-504.5 C-269.5,-504.5 -86,-283 -86,-283 C-86,-283 -49.25,-369.5 -49.25,-369.5 C-49.25,-369.5 -233.5,-594.5 -233.5,-594.5z"></path></g></g><g transform="matrix(0.4107963442802429,-0.0017352219438180327,0.0017352219438180327,0.4107963442802429,287.5,291)" opacity="1" style="display: block;"><g opacity="1" transform="matrix(0.9988200068473816,0.00005229809175943956,-0.000052363018767209724,1.000059962272644,0,0)"><path fill="rgb(193,19,12)" fill-opacity="1" d=" M-146.08299255371094,-518.0479736328125 C-146.08299255371094,-518.0479736328125 -266.4490051269531,-504.83599853515625 -266.4490051269531,-504.83599853515625 C-266.4490051269531,-504.83599853515625 -83.76699829101562,-284.8179931640625 -83.76699829101562,-284.8179931640625 C-83.76699829101562,-284.8179931640625 44.994998931884766,-285.95001220703125 44.994998931884766,-285.95001220703125 C44.994998931884766,-285.95001220703125 -146.08299255371094,-518.0479736328125 -146.08299255371094,-518.0479736328125z"></path></g><g opacity="1" transform="matrix(0.9992799758911133,0.00005232217881712131,-0.000052348357712617144,0.999779999256134,0.1420000046491623,0.19300000369548798)"><path fill="rgb(163,0,19)" fill-opacity="1" d=" M-105.45899963378906,-594.3920288085938 C-105.45899963378906,-594.3920288085938 -233.95700073242188,-591.4879760742188 -233.95700073242188,-591.4879760742188 C-233.95700073242188,-591.4879760742188 -264.1340026855469,-507.0039978027344 -264.1340026855469,-507.0039978027344 C-264.1340026855469,-507.0039978027344 -144.26300048828125,-521.27099609375 -144.26300048828125,-521.27099609375 C-144.26300048828125,-521.27099609375 -105.45899963378906,-594.3920288085938 -105.45899963378906,-594.3920288085938z"></path></g><g opacity="1" transform="matrix(1,0,0,1,0,0)"><path fill="rgb(253,113,98)" fill-opacity="1" d=" M-104.75,-595.75 C-104.75,-595.75 -233.5,-594.5 -233.5,-594.5 C-233.5,-594.5 -49,-369.75 -49,-369.75 C-49,-369.75 79.25,-369.75 79.25,-369.75 C79.25,-369.75 -104.75,-595.75 -104.75,-595.75z"></path></g><g opacity="1" transform="matrix(1,0,0,1,0,0)"><path fill="rgb(185,4,25)" fill-opacity="1" d=" M-48.75,-369.75 C-48.75,-369.75 -86,-284.25 -86,-284.25 C-86,-284.25 46.25,-284.25 46.25,-284.25 C46.25,-284.25 79.75,-369.5 79.75,-369.5 C79.75,-369.5 -48.75,-369.75 -48.75,-369.75z"></path></g><g opacity="1" transform="matrix(1,0,0,1,0.19099999964237213,0.1589999943971634)"><path fill="rgb(238,39,50)" fill-opacity="1" d=" M-233.5,-594.5 C-233.5,-594.5 -269.5,-504.5 -269.5,-504.5 C-269.5,-504.5 -86,-283 -86,-283 C-86,-283 -49.25,-369.5 -49.25,-369.5 C-49.25,-369.5 -233.5,-594.5 -233.5,-594.5z"></path></g></g><g transform="matrix(0.29170387983322144,0.28924989700317383,-0.28924989700317383,0.29170387983322144,287.5,291)" opacity="1" style="display: block;"><g opacity="1" transform="matrix(0.9988200068473816,0.00005229809175943956,-0.000052363018767209724,1.000059962272644,0,0)"><path fill="rgb(163,0,19)" fill-opacity="1" d=" M-146.08299255371094,-518.0479736328125 C-146.08299255371094,-518.0479736328125 -266.4490051269531,-504.83599853515625 -266.4490051269531,-504.83599853515625 C-266.4490051269531,-504.83599853515625 -83.76699829101562,-284.8179931640625 -83.76699829101562,-284.8179931640625 C-83.76699829101562,-284.8179931640625 44.994998931884766,-285.95001220703125 44.994998931884766,-285.95001220703125 C44.994998931884766,-285.95001220703125 -146.08299255371094,-518.0479736328125 -146.08299255371094,-518.0479736328125z"></path></g><g opacity="1" transform="matrix(0.9992799758911133,0.00005232217881712131,-0.000052348357712617144,0.999779999256134,0.1420000046491623,0.19300000369548798)"><path fill="rgb(163,0,19)" fill-opacity="1" d=" M-105.45899963378906,-594.3920288085938 C-105.45899963378906,-594.3920288085938 -233.95700073242188,-591.4879760742188 -233.95700073242188,-591.4879760742188 C-233.95700073242188,-591.4879760742188 -264.1340026855469,-507.0039978027344 -264.1340026855469,-507.0039978027344 C-264.1340026855469,-507.0039978027344 -144.26300048828125,-521.27099609375 -144.26300048828125,-521.27099609375 C-144.26300048828125,-521.27099609375 -105.45899963378906,-594.3920288085938 -105.45899963378906,-594.3920288085938z"></path></g><g opacity="1" transform="matrix(1,0,0,1,0,0)"><path fill="rgb(254,63,63)" fill-opacity="1" d=" M-104.75,-595.75 C-104.75,-595.75 -233.5,-594.5 -233.5,-594.5 C-233.5,-594.5 -49,-369.75 -49,-369.75 C-49,-369.75 79.25,-369.75 79.25,-369.75 C79.25,-369.75 -104.75,-595.75 -104.75,-595.75z"></path></g><g opacity="1" transform="matrix(1,0,0,1,0,0)"><path fill="rgb(171,1,18)" fill-opacity="1" d=" M-48.75,-369.75 C-48.75,-369.75 -86,-284.25 -86,-284.25 C-86,-284.25 46.25,-284.25 46.25,-284.25 C46.25,-284.25 79.75,-369.5 79.75,-369.5 C79.75,-369.5 -48.75,-369.75 -48.75,-369.75z"></path></g><g opacity="1" transform="matrix(1,0,0,1,0.19099999964237213,0.1589999943971634)"><path fill="rgb(249,96,84)" fill-opacity="1" d=" M-233.5,-594.5 C-233.5,-594.5 -269.5,-504.5 -269.5,-504.5 C-269.5,-504.5 -86,-283 -86,-283 C-86,-283 -49.25,-369.5 -49.25,-369.5 C-49.25,-369.5 -233.5,-594.5 -233.5,-594.5z"></path></g></g><g transform="matrix(0.0017352219438180327,0.4107963442802429,-0.4107963442802429,0.0017352219438180327,287.5,291)" opacity="1" style="display: block;"><g opacity="1" transform="matrix(0.9988200068473816,0.00005229809175943956,-0.000052363018767209724,1.000059962272644,0,0)"><path fill="rgb(163,0,19)" fill-opacity="1" d=" M-146.08299255371094,-518.0479736328125 C-146.08299255371094,-518.0479736328125 -266.4490051269531,-504.83599853515625 -266.4490051269531,-504.83599853515625 C-266.4490051269531,-504.83599853515625 -83.76699829101562,-284.8179931640625 -83.76699829101562,-284.8179931640625 C-83.76699829101562,-284.8179931640625 44.994998931884766,-285.95001220703125 44.994998931884766,-285.95001220703125 C44.994998931884766,-285.95001220703125 -146.08299255371094,-518.0479736328125 -146.08299255371094,-518.0479736328125z"></path></g><g opacity="1" transform="matrix(0.9992799758911133,0.00005232217881712131,-0.000052348357712617144,0.999779999256134,0.1420000046491623,0.19300000369548798)"><path fill="rgb(191,28,37)" fill-opacity="1" d=" M-105.45899963378906,-594.3920288085938 C-105.45899963378906,-594.3920288085938 -233.95700073242188,-591.4879760742188 -233.95700073242188,-591.4879760742188 C-233.95700073242188,-591.4879760742188 -264.1340026855469,-507.0039978027344 -264.1340026855469,-507.0039978027344 C-264.1340026855469,-507.0039978027344 -144.26300048828125,-521.27099609375 -144.26300048828125,-521.27099609375 C-144.26300048828125,-521.27099609375 -105.45899963378906,-594.3920288085938 -105.45899963378906,-594.3920288085938z"></path></g><g opacity="1" transform="matrix(1,0,0,1,0,0)"><path fill="rgb(181,7,27)" fill-opacity="1" d=" M-104.75,-595.75 C-104.75,-595.75 -233.5,-594.5 -233.5,-594.5 C-233.5,-594.5 -49,-369.75 -49,-369.75 C-49,-369.75 79.25,-369.75 79.25,-369.75 C79.25,-369.75 -104.75,-595.75 -104.75,-595.75z"></path></g><g opacity="1" transform="matrix(1,0,0,1,0,0)"><path fill="rgb(182,0,23)" fill-opacity="1" d=" M-48.75,-369.75 C-48.75,-369.75 -86,-284.25 -86,-284.25 C-86,-284.25 46.25,-284.25 46.25,-284.25 C46.25,-284.25 79.75,-369.5 79.75,-369.5 C79.75,-369.5 -48.75,-369.75 -48.75,-369.75z"></path></g><g opacity="1" transform="matrix(1,0,0,1,0.19099999964237213,0.1589999943971634)"><path fill="rgb(254,90,81)" fill-opacity="1" d=" M-233.5,-594.5 C-233.5,-594.5 -269.5,-504.5 -269.5,-504.5 C-269.5,-504.5 -86,-283 -86,-283 C-86,-283 -49.25,-369.5 -49.25,-369.5 C-49.25,-369.5 -233.5,-594.5 -233.5,-594.5z"></path></g></g><g transform="matrix(-0.28924989700317383,0.29170387983322144,-0.29170387983322144,-0.28924989700317383,287.5,291)" opacity="1" style="display: block;"><g opacity="1" transform="matrix(0.9988200068473816,0.00005229809175943956,-0.000052363018767209724,1.000059962272644,0,0)"><path fill="rgb(193,19,12)" fill-opacity="1" d=" M-146.08299255371094,-518.0479736328125 C-146.08299255371094,-518.0479736328125 -266.4490051269531,-504.83599853515625 -266.4490051269531,-504.83599853515625 C-266.4490051269531,-504.83599853515625 -83.76699829101562,-284.8179931640625 -83.76699829101562,-284.8179931640625 C-83.76699829101562,-284.8179931640625 44.994998931884766,-285.95001220703125 44.994998931884766,-285.95001220703125 C44.994998931884766,-285.95001220703125 -146.08299255371094,-518.0479736328125 -146.08299255371094,-518.0479736328125z"></path></g><g opacity="1" transform="matrix(0.9992799758911133,0.00005232217881712131,-0.000052348357712617144,0.999779999256134,0.1420000046491623,0.19300000369548798)"><path fill="rgb(199,97,80)" fill-opacity="1" d=" M-105.45899963378906,-594.3920288085938 C-105.45899963378906,-594.3920288085938 -233.95700073242188,-591.4879760742188 -233.95700073242188,-591.4879760742188 C-233.95700073242188,-591.4879760742188 -264.1340026855469,-507.0039978027344 -264.1340026855469,-507.0039978027344 C-264.1340026855469,-507.0039978027344 -144.26300048828125,-521.27099609375 -144.26300048828125,-521.27099609375 C-144.26300048828125,-521.27099609375 -105.45899963378906,-594.3920288085938 -105.45899963378906,-594.3920288085938z"></path></g><g opacity="1" transform="matrix(1,0,0,1,0.19900000095367432,0.013000000268220901)"><path fill="rgb(170,4,23)" fill-opacity="1" d=" M-104.75,-595.75 C-104.75,-595.75 -233.5,-594.5 -233.5,-594.5 C-233.5,-594.5 -49,-369.75 -49,-369.75 C-49,-369.75 79.25,-369.75 79.25,-369.75 C79.25,-369.75 -104.75,-595.75 -104.75,-595.75z"></path></g><g opacity="1" transform="matrix(1,0,0,1,0,0)"><path fill="rgb(226,14,42)" fill-opacity="1" d=" M-48.75,-369.75 C-48.75,-369.75 -86,-284.25 -86,-284.25 C-86,-284.25 46.25,-284.25 46.25,-284.25 C46.25,-284.25 79.75,-369.5 79.75,-369.5 C79.75,-369.5 -48.75,-369.75 -48.75,-369.75z"></path></g><g opacity="1" transform="matrix(1,0,0,1,0.19099999964237213,0.1589999943971634)"><path fill="rgb(243,44,56)" fill-opacity="1" d=" M-233.5,-594.5 C-233.5,-594.5 -269.5,-504.5 -269.5,-504.5 C-269.5,-504.5 -86,-283 -86,-283 C-86,-283 -49.25,-369.5 -49.25,-369.5 C-49.25,-369.5 -233.5,-594.5 -233.5,-594.5z"></path></g></g></g></svg>